<?xml version="1.0" standalone="no"?>
<!DOCTYPE svg PUBLIC "-//W3C//DTD SVG 20010904//EN"
 "http://www.w3.org/TR/2001/REC-SVG-20010904/DTD/svg10.dtd">
<svg version="1.0" xmlns="http://www.w3.org/2000/svg"
 width="1813.000000pt" height="1813.000000pt" viewBox="0 0 1813.000000 1813.000000"
 preserveAspectRatio="xMidYMid meet">
<metadata>
Created by potrace 1.11, written by Peter Selinger 2001-2013
</metadata>
<g transform="translate(0.000000,1813.000000) scale(0.100000,-0.100000)"
fill="#000000" stroke="none">
<path d="M1710 18070 c0 -19 -7 -20 -150 -20 -143 0 -150 -1 -150 -20 0 -18
-7 -20 -60 -20 -57 0 -60 -1 -60 -25 0 -24 -2 -25 -65 -25 -58 0 -65 -2 -65
-20 0 -17 -7 -20 -40 -20 -33 0 -40 -3 -40 -20 0 -17 -7 -20 -40 -20 -33 0
-40 -3 -40 -20 0 -13 -7 -20 -20 -20 -13 0 -20 -7 -20 -20 0 -17 -7 -20 -45
-20 -38 0 -45 -3 -45 -19 0 -15 -8 -21 -32 -23 -23 -2 -36 -10 -43 -25 -5 -13
-18 -23 -27 -23 -11 0 -18 -8 -18 -20 0 -13 -7 -20 -20 -20 -13 0 -20 -7 -20
-20 0 -15 -7 -20 -25 -20 -18 0 -25 -5 -25 -20 0 -13 -7 -20 -20 -20 -13 0
-20 -7 -20 -20 0 -13 -7 -20 -20 -20 -13 0 -20 -7 -20 -20 0 -13 -7 -20 -20
-20 -15 0 -20 -7 -20 -25 0 -18 -5 -25 -20 -25 -13 0 -20 -7 -20 -20 0 -13 -7
-20 -20 -20 -13 0 -20 -7 -20 -20 0 -13 -7 -20 -20 -20 -11 0 -24 -8 -27 -17
-4 -10 -15 -24 -25 -31 -10 -8 -18 -26 -18 -43 0 -22 -5 -29 -20 -29 -15 0
-20 -7 -20 -25 0 -16 -6 -25 -15 -25 -9 0 -18 -8 -22 -17 -3 -10 -15 -30 -25
-45 -10 -14 -18 -33 -18 -42 0 -9 -4 -16 -9 -16 -5 0 -14 -15 -21 -32 -6 -18
-20 -49 -30 -68 -26 -51 -65 -155 -89 -235 -11 -38 -28 -97 -38 -130 -17 -57
-18 -372 -21 -7525 l-2 -7465 21 -100 c60 -287 205 -590 390 -817 131 -160
431 -418 487 -418 12 0 22 -6 22 -13 0 -14 278 -157 306 -157 5 0 31 -9 59
-19 110 -43 199 -61 293 -61 71 0 92 -3 92 -14 0 -8 17 -16 46 -20 61 -8
14507 -8 14568 0 29 4 46 12 46 20 0 11 21 14 95 14 64 0 115 6 157 19 35 11
79 24 98 29 48 14 119 40 155 56 108 49 245 123 245 132 0 6 12 14 28 17 41 8
262 174 262 196 0 6 5 11 11 11 15 0 138 124 207 208 176 213 317 500 382 775
53 223 50 -250 50 7572 0 7762 2 7357 -46 7560 -35 146 -63 228 -123 360 -10
22 -24 55 -31 73 -7 17 -16 32 -21 32 -5 0 -9 7 -9 16 0 9 -8 28 -18 42 -10
15 -22 35 -25 45 -4 9 -13 17 -22 17 -9 0 -15 9 -15 25 0 18 -5 25 -19 25 -15
0 -21 8 -23 33 -2 22 -10 35 -25 42 -13 5 -23 18 -23 27 0 11 -8 18 -20 18
-13 0 -20 7 -20 20 0 13 -7 20 -20 20 -13 0 -20 7 -20 20 0 13 -7 20 -20 20
-15 0 -20 7 -20 25 0 18 -5 25 -20 25 -13 0 -20 7 -20 20 0 13 -7 20 -20 20
-13 0 -20 7 -20 20 0 15 -7 20 -25 20 -18 0 -25 5 -25 20 0 13 -7 20 -20 20
-13 0 -20 7 -20 20 0 13 -7 20 -20 20 -13 0 -20 7 -20 20 0 12 -7 20 -18 20
-9 0 -22 10 -27 23 -7 15 -20 23 -42 25 -25 2 -33 8 -33 23 0 16 -7 19 -45 19
-38 0 -45 3 -45 20 0 13 -7 20 -20 20 -13 0 -20 7 -20 20 0 17 -7 20 -40 20
-33 0 -40 3 -40 20 0 17 -7 20 -45 20 -38 0 -45 3 -45 20 0 18 -7 20 -60 20
-57 0 -60 1 -60 25 0 24 -2 25 -65 25 -58 0 -65 2 -65 20 0 19 -7 20 -145 20
-138 0 -145 1 -145 20 0 20 -7 20 -7330 20 -7323 0 -7330 0 -7330 -20z m12580
-8210 c0 -19 7 -20 125 -20 118 0 125 -1 125 -20 0 -18 7 -20 60 -20 53 0 60
-2 60 -20 0 -18 7 -20 85 -20 84 0 85 0 85 -25 0 -24 2 -25 65 -25 58 0 65 -2
65 -20 0 -17 7 -20 40 -20 33 0 40 -3 40 -20 0 -17 7 -20 40 -20 33 0 40 -3
40 -20 0 -17 7 -20 45 -20 38 0 45 -3 45 -20 0 -17 7 -20 40 -20 33 0 40 -3
40 -20 0 -13 7 -20 20 -20 15 0 20 -7 20 -25 0 -22 4 -25 40 -25 33 0 40 -3
40 -20 0 -15 7 -20 25 -20 18 0 25 -5 25 -20 0 -13 7 -20 20 -20 13 0 20 -7
20 -20 0 -13 7 -20 20 -20 13 0 20 -7 20 -20 0 -17 7 -20 40 -20 33 0 40 -3
40 -20 0 -13 7 -20 20 -20 15 0 20 -7 20 -25 0 -20 5 -25 25 -25 18 0 25 -5
25 -20 0 -13 7 -20 20 -20 13 0 20 -7 20 -20 0 -13 7 -20 20 -20 17 0 20 -7
20 -40 0 -33 3 -40 20 -40 13 0 20 -7 20 -20 0 -13 7 -20 20 -20 15 0 20 -7
20 -25 0 -18 5 -25 20 -25 13 0 20 -7 20 -20 0 -15 7 -20 25 -20 23 0 25 -4
25 -40 0 -33 3 -40 20 -40 13 0 20 -7 20 -20 0 -13 7 -20 20 -20 17 0 20 -7
20 -45 0 -38 3 -45 20 -45 13 0 20 -7 20 -20 0 -13 7 -20 20 -20 17 0 20 -7
20 -40 0 -33 3 -40 20 -40 17 0 20 -7 20 -40 0 -33 -3 -40 -20 -40 -15 0 -20
-7 -20 -25 0 -22 -4 -25 -40 -25 -33 0 -40 -3 -40 -20 0 -13 -7 -20 -20 -20
-13 0 -20 -7 -20 -20 0 -17 -7 -20 -45 -20 -38 0 -45 -3 -45 -20 0 -13 -7 -20
-20 -20 -13 0 -20 -7 -20 -20 0 -17 -7 -20 -40 -20 -33 0 -40 -3 -40 -20 0
-13 -7 -20 -20 -20 -15 0 -20 -7 -20 -25 0 -23 -4 -25 -45 -25 -38 0 -45 -3
-45 -20 0 -17 -7 -20 -40 -20 -33 0 -40 -3 -40 -20 0 -13 -7 -20 -20 -20 -13
0 -20 -7 -20 -20 0 -17 -7 -20 -40 -20 -33 0 -40 -3 -40 -20 0 -15 -7 -20 -25
-20 -18 0 -25 -5 -25 -20 0 -17 -7 -20 -40 -20 -36 0 -40 -2 -40 -25 0 -18 -5
-25 -20 -25 -13 0 -20 -7 -20 -20 0 -17 -7 -20 -40 -20 -33 0 -40 -3 -40 -20
0 -17 -7 -20 -45 -20 -38 0 -45 -3 -45 -20 0 -13 -7 -20 -20 -20 -13 0 -20 -7
-20 -20 0 -17 -7 -20 -40 -20 -33 0 -40 -3 -40 -20 0 -13 -7 -20 -20 -20 -15
0 -20 -7 -20 -25 0 -23 -4 -25 -45 -25 -38 0 -45 -3 -45 -20 0 -13 -7 -20 -20
-20 -17 0 -20 7 -20 45 0 38 -3 45 -20 45 -17 0 -20 7 -20 40 0 33 -3 40 -20
40 -13 0 -20 7 -20 20 0 13 -7 20 -20 20 -17 0 -20 7 -20 40 0 36 -2 40 -25
40 -20 0 -25 5 -25 25 0 18 -5 25 -20 25 -13 0 -20 7 -20 20 0 13 -7 20 -20
20 -13 0 -20 7 -20 20 0 13 -7 20 -20 20 -13 0 -20 7 -20 20 0 13 -7 20 -20
20 -13 0 -20 7 -20 20 0 13 -7 20 -20 20 -13 0 -20 7 -20 20 0 15 -7 20 -25
20 -20 0 -25 5 -25 25 0 23 -4 25 -40 25 -33 0 -40 3 -40 20 0 18 -7 20 -60
20 -53 0 -60 2 -60 20 0 17 -7 20 -45 20 -38 0 -45 3 -45 20 0 20 -7 20 -330
20 -323 0 -330 0 -330 -20 0 -17 -7 -20 -45 -20 -38 0 -45 -3 -45 -20 0 -17
-7 -20 -40 -20 -33 0 -40 -3 -40 -20 0 -17 -7 -20 -40 -20 -36 0 -40 -2 -40
-25 0 -20 -5 -25 -25 -25 -18 0 -25 -5 -25 -20 0 -13 -7 -20 -20 -20 -17 0
-20 -7 -20 -40 0 -33 -3 -40 -20 -40 -13 0 -20 -7 -20 -20 0 -13 -7 -20 -20
-20 -17 0 -20 -7 -20 -45 0 -38 -3 -45 -20 -45 -17 0 -20 -7 -20 -40 0 -33 -3
-40 -20 -40 -19 0 -20 -7 -20 -230 0 -223 1 -230 20 -230 17 0 20 -7 20 -40 0
-33 3 -40 20 -40 17 0 20 -7 20 -40 0 -33 3 -40 20 -40 15 0 20 -7 20 -25 0
-18 5 -25 20 -25 17 0 20 -7 20 -40 0 -33 3 -40 20 -40 13 0 20 -7 20 -20 0
-17 7 -20 45 -20 38 0 45 -3 45 -20 0 -13 7 -20 20 -20 13 0 20 -7 20 -20 0
-13 7 -20 20 -20 15 0 20 -7 20 -25 0 -22 4 -25 40 -25 33 0 40 -3 40 -20 0
-15 7 -20 25 -20 18 0 25 -5 25 -20 0 -17 7 -20 40 -20 33 0 40 -3 40 -20 0
-17 7 -20 40 -20 33 0 40 -3 40 -20 0 -17 7 -20 45 -20 38 0 45 -3 45 -20 0
-17 7 -20 40 -20 36 0 40 -2 40 -25 0 -22 4 -25 40 -25 33 0 40 -3 40 -20 0
-17 7 -20 45 -20 38 0 45 -3 45 -20 0 -17 7 -20 40 -20 33 0 40 -3 40 -20 0
-18 7 -20 60 -20 53 0 60 -2 60 -20 0 -17 7 -20 45 -20 38 0 45 -3 45 -20 0
-18 7 -20 60 -20 57 0 60 -1 60 -25 0 -23 4 -25 45 -25 38 0 45 -3 45 -20 0
-17 7 -20 40 -20 33 0 40 -3 40 -20 0 -17 7 -20 40 -20 33 0 40 -3 40 -20 0
-17 7 -20 45 -20 38 0 45 -3 45 -20 0 -17 7 -20 40 -20 33 0 40 -3 40 -20 0
-17 7 -20 40 -20 36 0 40 -2 40 -25 0 -23 4 -25 45 -25 38 0 45 -3 45 -20 0
-17 7 -20 40 -20 33 0 40 -3 40 -20 0 -17 7 -20 40 -20 33 0 40 -3 40 -20 0
-17 7 -20 45 -20 38 0 45 -3 45 -20 0 -17 7 -20 40 -20 33 0 40 -3 40 -20 0
-13 7 -20 20 -20 15 0 20 -7 20 -25 0 -22 4 -25 40 -25 33 0 40 -3 40 -20 0
-17 7 -20 45 -20 38 0 45 -3 45 -20 0 -13 7 -20 20 -20 13 0 20 -7 20 -20 0
-17 7 -20 40 -20 33 0 40 -3 40 -20 0 -13 7 -20 20 -20 13 0 20 -7 20 -20 0
-15 7 -20 25 -20 20 0 25 -5 25 -25 0 -22 4 -25 40 -25 33 0 40 -3 40 -20 0
-13 7 -20 20 -20 13 0 20 -7 20 -20 0 -13 7 -20 20 -20 13 0 20 -7 20 -20 0
-17 7 -20 45 -20 38 0 45 -3 45 -20 0 -13 7 -20 20 -20 13 0 20 -7 20 -20 0
-13 7 -20 20 -20 15 0 20 -7 20 -25 0 -18 5 -25 20 -25 13 0 20 -7 20 -20 0
-13 7 -20 20 -20 13 0 20 -7 20 -20 0 -13 7 -20 20 -20 17 0 20 -7 20 -40 0
-36 3 -40 25 -40 18 0 25 -5 25 -20 0 -13 7 -20 20 -20 15 0 20 -7 20 -25 0
-18 5 -25 20 -25 17 0 20 -7 20 -40 0 -33 3 -40 20 -40 13 0 20 -7 20 -20 0
-13 7 -20 20 -20 17 0 20 -7 20 -40 0 -33 3 -40 20 -40 17 0 20 -7 20 -45 0
-41 2 -45 25 -45 23 0 25 -4 25 -40 0 -33 3 -40 20 -40 18 0 20 -7 20 -65 0
-58 2 -65 20 -65 18 0 20 -7 20 -60 0 -53 2 -60 20 -60 18 0 20 -7 20 -85 0
-78 2 -85 20 -85 19 0 20 -7 20 -105 0 -98 1 -105 20 -105 20 0 20 -7 20 -395
0 -388 0 -395 -20 -395 -19 0 -20 -7 -20 -125 0 -118 -1 -125 -20 -125 -18 0
-20 -7 -20 -60 0 -53 -2 -60 -20 -60 -18 0 -20 -7 -20 -65 0 -58 -2 -65 -20
-65 -18 0 -20 -7 -20 -60 0 -53 -2 -60 -20 -60 -17 0 -20 -7 -20 -45 0 -41 -2
-45 -25 -45 -22 0 -25 -4 -25 -40 0 -33 -3 -40 -20 -40 -17 0 -20 -7 -20 -40
0 -33 -3 -40 -20 -40 -13 0 -20 -7 -20 -20 0 -13 -7 -20 -20 -20 -15 0 -20 -7
-20 -25 0 -18 -5 -25 -20 -25 -17 0 -20 -7 -20 -40 0 -33 -3 -40 -20 -40 -13
0 -20 -7 -20 -20 0 -15 -7 -20 -25 -20 -18 0 -25 -5 -25 -20 0 -13 -7 -20 -20
-20 -13 0 -20 -7 -20 -20 0 -13 -7 -20 -20 -20 -15 0 -20 -7 -20 -25 0 -18 -5
-25 -20 -25 -13 0 -20 -7 -20 -20 0 -13 -7 -20 -20 -20 -13 0 -20 -7 -20 -20
0 -13 -7 -20 -20 -20 -13 0 -20 -7 -20 -20 0 -15 -7 -20 -25 -20 -18 0 -25 -5
-25 -20 0 -13 -7 -20 -20 -20 -13 0 -20 -7 -20 -20 0 -17 -7 -20 -40 -20 -36
0 -40 -2 -40 -25 0 -18 -5 -25 -20 -25 -13 0 -20 -7 -20 -20 0 -17 -7 -20 -45
-20 -38 0 -45 -3 -45 -20 0 -13 -7 -20 -20 -20 -13 0 -20 -7 -20 -20 0 -17 -7
-20 -40 -20 -33 0 -40 -3 -40 -20 0 -17 -7 -20 -40 -20 -33 0 -40 -3 -40 -20
0 -17 -7 -20 -45 -20 -41 0 -45 -2 -45 -25 0 -22 -4 -25 -40 -25 -33 0 -40 -3
-40 -20 0 -17 -7 -20 -40 -20 -33 0 -40 -3 -40 -20 0 -18 -7 -20 -65 -20 -58
0 -65 -2 -65 -20 0 -18 -7 -20 -60 -20 -53 0 -60 -2 -60 -20 0 -18 -7 -20 -85
-20 -78 0 -85 -2 -85 -20 0 -19 -7 -20 -105 -20 l-105 0 0 -25 0 -25 -165 0
c-158 0 -165 -1 -165 -20 0 -20 -7 -20 -440 -20 -433 0 -440 0 -440 20 0 19
-7 20 -145 20 l-145 0 0 25 0 25 -125 0 c-118 0 -125 1 -125 20 0 18 -7 20
-60 20 -53 0 -60 2 -60 20 0 18 -7 20 -65 20 -58 0 -65 2 -65 20 0 18 -7 20
-60 20 -53 0 -60 2 -60 20 0 18 -7 20 -65 20 -58 0 -65 2 -65 20 0 18 -7 20
-60 20 -57 0 -60 1 -60 25 0 23 -4 25 -45 25 -38 0 -45 3 -45 20 0 17 -7 20
-40 20 -33 0 -40 3 -40 20 0 17 -7 20 -40 20 -33 0 -40 3 -40 20 0 15 -7 20
-25 20 -18 0 -25 5 -25 20 0 17 -7 20 -40 20 -33 0 -40 3 -40 20 0 13 -7 20
-20 20 -15 0 -20 7 -20 25 0 18 -5 25 -20 25 -13 0 -20 7 -20 20 0 17 -7 20
-45 20 -38 0 -45 3 -45 20 0 13 -7 20 -20 20 -13 0 -20 7 -20 20 0 13 -7 20
-20 20 -13 0 -20 7 -20 20 0 13 -7 20 -20 20 -13 0 -20 7 -20 20 0 13 -7 20
-20 20 -15 0 -20 7 -20 25 0 23 -4 25 -45 25 -38 0 -45 3 -45 20 0 13 -7 20
-20 20 -13 0 -20 7 -20 20 0 13 -7 20 -20 20 -13 0 -20 7 -20 20 0 13 -7 20
-20 20 -17 0 -20 7 -20 40 0 33 -3 40 -20 40 -15 0 -20 7 -20 25 0 18 -5 25
-20 25 -13 0 -20 7 -20 20 0 15 -7 20 -25 20 -18 0 -25 5 -25 20 0 13 -7 20
-20 20 -13 0 -20 7 -20 20 0 13 -7 20 -20 20 -17 0 -20 7 -20 40 0 33 -3 40
-20 40 -15 0 -20 7 -20 25 0 18 -5 25 -20 25 -13 0 -20 7 -20 20 0 13 -7 20
-20 20 -17 0 -20 7 -20 40 0 36 -2 40 -25 40 -22 0 -25 4 -25 40 0 33 -3 40
-20 40 -15 0 -20 7 -20 25 0 18 -5 25 -20 25 -17 0 -20 7 -20 40 0 33 -3 40
-20 40 -17 0 -20 7 -20 40 0 33 3 40 20 40 13 0 20 7 20 20 0 17 7 20 40 20
36 0 40 3 40 25 0 23 4 25 45 25 38 0 45 3 45 20 0 13 7 20 20 20 13 0 20 7
20 20 0 17 7 20 40 20 33 0 40 3 40 20 0 17 7 20 45 20 38 0 45 3 45 20 0 13
7 20 20 20 13 0 20 7 20 20 0 17 7 20 40 20 36 0 40 3 40 25 0 23 4 25 40 25
33 0 40 3 40 20 0 17 7 20 45 20 38 0 45 3 45 20 0 13 7 20 20 20 13 0 20 7
20 20 0 17 7 20 40 20 33 0 40 3 40 20 0 17 7 20 45 20 38 0 45 3 45 20 0 13
7 20 20 20 15 0 20 7 20 25 0 23 4 25 40 25 33 0 40 3 40 20 0 17 7 20 40 20
33 0 40 3 40 20 0 15 7 20 25 20 18 0 25 5 25 20 0 17 7 20 40 20 33 0 40 3
40 20 0 17 7 20 40 20 33 0 40 3 40 20 0 13 7 20 20 20 17 0 20 -7 20 -40 0
-36 3 -40 25 -40 18 0 25 -5 25 -20 0 -13 7 -20 20 -20 13 0 20 -7 20 -20 0
-13 7 -20 20 -20 17 0 20 -7 20 -45 0 -38 3 -45 20 -45 13 0 20 -7 20 -20 0
-13 7 -20 20 -20 13 0 20 -7 20 -20 0 -13 7 -20 20 -20 17 0 20 -7 20 -40 0
-36 3 -40 25 -40 18 0 25 -5 25 -20 0 -13 7 -20 20 -20 15 0 20 -7 20 -25 0
-18 5 -25 20 -25 13 0 20 -7 20 -20 0 -13 7 -20 20 -20 13 0 20 -7 20 -20 0
-13 7 -20 20 -20 13 0 20 -7 20 -20 0 -17 7 -20 45 -20 38 0 45 -3 45 -20 0
-13 7 -20 20 -20 13 0 20 -7 20 -20 0 -13 7 -20 20 -20 15 0 20 -7 20 -25 0
-22 4 -25 40 -25 33 0 40 -3 40 -20 0 -13 7 -20 20 -20 13 0 20 -7 20 -20 0
-17 7 -20 45 -20 38 0 45 -3 45 -20 0 -17 7 -20 40 -20 33 0 40 -3 40 -20 0
-17 7 -20 40 -20 33 0 40 -3 40 -20 0 -18 7 -20 65 -20 63 0 65 -1 65 -25 l0
-25 105 0 c98 0 105 -1 105 -20 0 -20 7 -20 310 -20 303 0 310 0 310 20 0 19
7 20 105 20 l105 0 0 25 c0 23 4 25 40 25 33 0 40 3 40 20 0 17 7 20 45 20 38
0 45 3 45 20 0 17 7 20 40 20 33 0 40 3 40 20 0 17 7 20 40 20 33 0 40 3 40
20 0 15 7 20 25 20 18 0 25 5 25 20 0 13 7 20 20 20 15 0 20 7 20 25 0 18 5
25 20 25 13 0 20 7 20 20 0 13 7 20 20 20 17 0 20 7 20 40 0 33 3 40 20 40 13
0 20 7 20 20 0 13 7 20 20 20 18 0 20 7 20 65 0 63 1 65 25 65 l25 0 0 230 0
230 -25 0 c-24 0 -25 3 -25 60 0 53 -2 60 -20 60 -17 0 -20 7 -20 40 0 33 -3
40 -20 40 -15 0 -20 7 -20 25 0 18 -5 25 -20 25 -13 0 -20 7 -20 20 0 13 -7
20 -20 20 -13 0 -20 7 -20 20 0 13 -7 20 -20 20 -13 0 -20 7 -20 20 0 15 -7
20 -25 20 -18 0 -25 5 -25 20 0 17 -7 20 -40 20 -33 0 -40 3 -40 20 0 13 -7
20 -20 20 -15 0 -20 7 -20 25 0 23 -4 25 -40 25 -33 0 -40 3 -40 20 0 17 -7
20 -45 20 -38 0 -45 3 -45 20 0 17 -7 20 -40 20 -33 0 -40 3 -40 20 0 13 -7
20 -20 20 -13 0 -20 7 -20 20 0 17 -7 20 -45 20 -38 0 -45 3 -45 20 0 17 -7
20 -40 20 -36 0 -40 3 -40 25 0 24 -3 25 -60 25 -53 0 -60 2 -60 20 0 17 -7
20 -45 20 -38 0 -45 3 -45 20 0 17 -7 20 -40 20 -33 0 -40 3 -40 20 0 17 -7
20 -40 20 -33 0 -40 3 -40 20 0 17 -7 20 -45 20 -38 0 -45 3 -45 20 0 17 -7
20 -40 20 -36 0 -40 3 -40 25 0 23 -4 25 -40 25 -33 0 -40 3 -40 20 0 17 -7
20 -45 20 -38 0 -45 3 -45 20 0 17 -7 20 -40 20 -33 0 -40 3 -40 20 0 18 -7
20 -65 20 -58 0 -65 2 -65 20 0 17 -7 20 -40 20 -33 0 -40 3 -40 20 0 17 -7
20 -40 20 -36 0 -40 3 -40 25 0 23 -4 25 -45 25 -38 0 -45 3 -45 20 0 17 -7
20 -40 20 -33 0 -40 3 -40 20 0 17 -7 20 -40 20 -33 0 -40 3 -40 20 0 17 -7
20 -45 20 -38 0 -45 3 -45 20 0 17 -7 20 -40 20 -33 0 -40 3 -40 20 0 17 -7
20 -40 20 -36 0 -40 3 -40 25 0 18 -5 25 -20 25 -13 0 -20 7 -20 20 0 17 -7
20 -45 20 -38 0 -45 3 -45 20 0 17 -7 20 -40 20 -33 0 -40 3 -40 20 0 13 -7
20 -20 20 -13 0 -20 7 -20 20 0 13 -7 20 -20 20 -13 0 -20 7 -20 20 0 17 -7
20 -45 20 -41 0 -45 2 -45 25 0 18 -5 25 -20 25 -13 0 -20 7 -20 20 0 13 -7
20 -20 20 -13 0 -20 7 -20 20 0 13 -7 20 -20 20 -13 0 -20 7 -20 20 0 13 -7
20 -20 20 -13 0 -20 7 -20 20 0 15 -7 20 -25 20 -18 0 -25 5 -25 20 0 13 -7
20 -20 20 -15 0 -20 7 -20 25 0 18 -5 25 -20 25 -13 0 -20 7 -20 20 0 13 -7
20 -20 20 -13 0 -20 7 -20 20 0 13 -7 20 -20 20 -13 0 -20 7 -20 20 0 13 -7
20 -20 20 -17 0 -20 7 -20 40 0 36 -2 40 -25 40 -20 0 -25 5 -25 25 0 18 -5
25 -20 25 -17 0 -20 7 -20 40 0 33 -3 40 -20 40 -13 0 -20 7 -20 20 0 13 -7
20 -20 20 -17 0 -20 7 -20 40 0 33 -3 40 -20 40 -17 0 -20 7 -20 45 0 38 -3
45 -20 45 -17 0 -20 7 -20 40 0 36 -2 40 -25 40 -24 0 -25 2 -25 65 0 58 -2
65 -20 65 -18 0 -20 7 -20 80 0 73 -2 80 -20 80 -18 0 -20 7 -20 85 0 78 -2
85 -20 85 -19 0 -20 7 -20 145 0 138 -1 145 -20 145 -19 0 -20 7 -20 250 0
243 1 250 20 250 19 0 20 7 20 125 0 118 1 125 20 125 18 0 20 7 20 85 0 78 2
85 20 85 18 0 20 7 20 60 0 53 2 60 20 60 18 0 20 7 20 65 0 63 1 65 25 65 23
0 25 4 25 40 0 33 3 40 20 40 17 0 20 7 20 40 0 33 3 40 20 40 17 0 20 7 20
45 0 38 3 45 20 45 13 0 20 7 20 20 0 13 7 20 20 20 17 0 20 7 20 40 0 33 3
40 20 40 13 0 20 7 20 20 0 15 7 20 25 20 20 0 25 5 25 25 0 18 5 25 20 25 13
0 20 7 20 20 0 13 7 20 20 20 13 0 20 7 20 20 0 13 7 20 20 20 17 0 20 7 20
40 0 33 3 40 20 40 13 0 20 7 20 20 0 13 7 20 20 20 15 0 20 7 20 25 0 20 5
25 25 25 18 0 25 5 25 20 0 17 7 20 40 20 33 0 40 3 40 20 0 13 7 20 20 20 13
0 20 7 20 20 0 13 7 20 20 20 13 0 20 7 20 20 0 13 7 20 20 20 13 0 20 7 20
20 0 17 7 20 45 20 41 0 45 2 45 25 0 18 5 25 20 25 13 0 20 7 20 20 0 17 7
20 40 20 33 0 40 3 40 20 0 17 7 20 45 20 38 0 45 3 45 20 0 17 7 20 40 20 33
0 40 3 40 20 0 17 7 20 40 20 33 0 40 3 40 20 0 18 7 20 65 20 63 0 65 1 65
25 0 24 3 25 60 25 53 0 60 2 60 20 0 18 7 20 85 20 78 0 85 2 85 20 0 19 7
20 105 20 98 0 105 1 105 20 0 20 7 20 520 20 513 0 520 0 520 -20z m-4460
-3270 c0 -3163 0 -3170 -20 -3170 -19 0 -20 -7 -20 -105 0 -98 -1 -105 -20
-105 -18 0 -20 -7 -20 -80 0 -73 -2 -80 -20 -80 -18 0 -20 -7 -20 -65 0 -63
-1 -65 -25 -65 -24 0 -25 -3 -25 -60 0 -53 -2 -60 -20 -60 -18 0 -20 -7 -20
-65 0 -58 -2 -65 -20 -65 -17 0 -20 -7 -20 -40 0 -33 -3 -40 -20 -40 -17 0
-20 -7 -20 -40 0 -33 -3 -40 -20 -40 -15 0 -20 -7 -20 -25 0 -18 -5 -25 -20
-25 -17 0 -20 -7 -20 -40 0 -36 -2 -40 -25 -40 -18 0 -25 -5 -25 -20 0 -13 -7
-20 -20 -20 -13 0 -20 -7 -20 -20 0 -13 -7 -20 -20 -20 -17 0 -20 -7 -20 -45
0 -38 -3 -45 -20 -45 -13 0 -20 -7 -20 -20 0 -13 -7 -20 -20 -20 -13 0 -20 -7
-20 -20 0 -13 -7 -20 -20 -20 -13 0 -20 -7 -20 -20 0 -15 -7 -20 -25 -20 -18
0 -25 -5 -25 -20 0 -13 -7 -20 -20 -20 -13 0 -20 -7 -20 -20 0 -13 -7 -20 -20
-20 -15 0 -20 -7 -20 -25 0 -18 -5 -25 -20 -25 -13 0 -20 -7 -20 -20 0 -17 -7
-20 -40 -20 -33 0 -40 -3 -40 -20 0 -15 -7 -20 -25 -20 -18 0 -25 -5 -25 -20
0 -17 -7 -20 -40 -20 -33 0 -40 -3 -40 -20 0 -13 -7 -20 -20 -20 -13 0 -20 -7
-20 -20 0 -17 -7 -20 -40 -20 -36 0 -40 -2 -40 -25 0 -23 -4 -25 -45 -25 -38
0 -45 -3 -45 -20 0 -17 -7 -20 -40 -20 -33 0 -40 -3 -40 -20 0 -18 -7 -20 -65
-20 -58 0 -65 -2 -65 -20 0 -17 -7 -20 -40 -20 -33 0 -40 -3 -40 -20 0 -18 -7
-20 -85 -20 -78 0 -85 -2 -85 -20 0 -18 -7 -20 -80 -20 -79 0 -80 0 -80 -25
l0 -25 -170 0 c-163 0 -170 -1 -170 -20 0 -20 -7 -20 -395 -20 -388 0 -395 0
-395 20 0 19 -7 20 -125 20 l-125 0 0 25 0 25 -105 0 c-98 0 -105 1 -105 20 0
18 -7 20 -60 20 -53 0 -60 2 -60 20 0 18 -7 20 -65 20 -58 0 -65 2 -65 20 0
17 -7 20 -40 20 -33 0 -40 3 -40 20 0 18 -7 20 -60 20 -53 0 -60 2 -60 20 0
17 -7 20 -45 20 -41 0 -45 2 -45 25 0 18 -5 25 -20 25 -13 0 -20 7 -20 20 0
17 -7 20 -40 20 -33 0 -40 3 -40 20 0 13 -7 20 -20 20 -13 0 -20 7 -20 20 0
17 -7 20 -45 20 -38 0 -45 3 -45 20 0 13 -7 20 -20 20 -13 0 -20 7 -20 20 0
13 -7 20 -20 20 -15 0 -20 7 -20 25 0 23 -4 25 -40 25 -33 0 -40 3 -40 20 0
15 -7 20 -25 20 -18 0 -25 5 -25 20 0 13 -7 20 -20 20 -13 0 -20 7 -20 20 0
13 -7 20 -20 20 -13 0 -20 7 -20 20 0 13 -7 20 -20 20 -13 0 -20 7 -20 20 0
13 -7 20 -20 20 -15 0 -20 7 -20 25 0 18 -5 25 -20 25 -13 0 -20 7 -20 20 0
15 -7 20 -25 20 -22 0 -25 4 -25 40 0 33 -3 40 -20 40 -13 0 -20 7 -20 20 0
13 -7 20 -20 20 -13 0 -20 7 -20 20 0 13 -7 20 -20 20 -17 0 -20 7 -20 45 0
38 -3 45 -20 45 -13 0 -20 7 -20 20 0 13 -7 20 -20 20 -17 0 -20 7 -20 40 0
36 -2 40 -25 40 -18 0 -25 5 -25 20 0 13 -7 20 -20 20 -17 0 -20 7 -20 45 0
38 -3 45 -20 45 -17 0 -20 7 -20 40 0 33 -3 40 -20 40 -17 0 -20 7 -20 40 0
33 -3 40 -20 40 -15 0 -20 7 -20 25 0 23 4 25 40 25 33 0 40 3 40 20 0 13 7
20 20 20 13 0 20 7 20 20 0 17 7 20 45 20 38 0 45 3 45 20 0 17 7 20 40 20 33
0 40 3 40 20 0 13 7 20 20 20 13 0 20 7 20 20 0 17 7 20 40 20 36 0 40 3 40
25 0 23 4 25 45 25 38 0 45 3 45 20 0 17 7 20 40 20 33 0 40 3 40 20 0 13 7
20 20 20 13 0 20 7 20 20 0 17 7 20 45 20 38 0 45 3 45 20 0 17 7 20 40 20 33
0 40 3 40 20 0 13 7 20 20 20 15 0 20 7 20 25 0 23 4 25 40 25 33 0 40 3 40
20 0 17 7 20 45 20 38 0 45 3 45 20 0 13 7 20 20 20 13 0 20 7 20 20 0 17 7
20 40 20 33 0 40 3 40 20 0 17 7 20 45 20 38 0 45 3 45 20 0 17 7 20 40 20 36
0 40 3 40 25 0 18 5 25 20 25 13 0 20 7 20 20 0 17 7 20 40 20 l40 0 0 -45 c0
-41 2 -45 25 -45 23 0 25 -4 25 -40 0 -33 3 -40 20 -40 17 0 20 -7 20 -40 0
-33 3 -40 20 -40 13 0 20 -7 20 -20 0 -13 7 -20 20 -20 15 0 20 -7 20 -25 0
-18 5 -25 20 -25 17 0 20 -7 20 -40 0 -33 3 -40 20 -40 13 0 20 -7 20 -20 0
-15 7 -20 25 -20 18 0 25 -5 25 -20 0 -13 7 -20 20 -20 13 0 20 -7 20 -20 0
-13 7 -20 20 -20 15 0 20 -7 20 -25 0 -18 5 -25 20 -25 13 0 20 -7 20 -20 0
-13 7 -20 20 -20 13 0 20 -7 20 -20 0 -13 7 -20 20 -20 13 0 20 -7 20 -20 0
-17 7 -20 45 -20 38 0 45 -3 45 -20 0 -17 7 -20 40 -20 33 0 40 -3 40 -20 0
-18 7 -20 65 -20 63 0 65 -1 65 -25 l0 -25 290 0 290 0 0 25 c0 24 3 25 60 25
53 0 60 2 60 20 0 17 7 20 45 20 38 0 45 3 45 20 0 17 7 20 40 20 33 0 40 3
40 20 0 13 7 20 20 20 13 0 20 7 20 20 0 13 7 20 20 20 13 0 20 7 20 20 0 15
7 20 25 20 20 0 25 5 25 25 0 18 5 25 20 25 13 0 20 7 20 20 0 13 7 20 20 20
17 0 20 7 20 40 0 33 3 40 20 40 18 0 20 7 20 85 0 78 2 85 20 85 19 0 20 7
20 125 0 118 1 125 20 125 20 0 20 7 20 2980 l0 2980 835 0 835 0 0 -3170z"/>
</g>
</svg>
